<svg xmlns="http://www.w3.org/2000/svg" viewBox="0 0 188.35 139.68"><defs><style>.cls-1{fill:#fff;}</style></defs><title>Asset 2</title><g id="Layer_2" data-name="Layer 2"><g id="Layer_1-2" data-name="Layer 1"><path class="cls-1" d="M9.87,49V69.13H0V16.56H9.87v4.11a13.58,13.58,0,0,1,10.8-4.83c8.13,0,17.42,6,17.42,18.72S28.44,53.28,20.81,53.28C16.06,53.28,12.17,51.7,9.87,49ZM28.44,34.49a9.43,9.43,0,0,0-9.65-9.65c-5.32,0-9.21,4.32-9.21,9.65s3.89,9.72,9.21,9.72A9.48,9.48,0,0,0,28.44,34.49Z"/><path class="cls-1" d="M41.76,38.52v-22h10V37.23c0,4.82,2.23,7.63,6.62,7.63,3.75,0,6.84-2.59,6.84-8.64V16.56H75.1v36H65.31v-4a12.67,12.67,0,0,1-9.94,4.68C46.87,53.28,41.76,47.81,41.76,38.52Z"/><path class="cls-1" d="M78,43.56l9.44-3.67c1.29,3.31,4,4.9,7.56,4.9,3.24,0,5-1.51,5-3.24,0-1.95-3.53-2.52-7.71-3.31-6.48-1.16-13-3.39-13-11.09,0-6,5.83-11.45,14.76-11.31,8.07,0,12.67,3.31,15.27,8.35l-8.72,3.68c-.93-2.38-3.38-4-6.62-4s-4.68,1.36-4.68,2.95S91.37,29,96.77,30.1c6,1.22,13,3.38,13,11.16,0,5.26-4.9,12.17-15.26,12C85.82,53.28,80.57,49.9,78,43.56Z"/><path class="cls-1" d="M113.76,0h9.79V20.52a12.66,12.66,0,0,1,9.94-4.68c8.49,0,13.61,5.47,13.61,14.76v22h-10V32c0-4.9-2.23-7.7-6.63-7.7-3.74,0-6.84,2.59-6.84,8.64V52.56h-9.86Z"/><path class="cls-1" d="M151.05,34.56a18.69,18.69,0,0,1,18.72-18.72c11,0,18.58,8.28,18.58,18.65v3.6H160.56c1.15,4,4.39,6.55,9.57,6.55A9.53,9.53,0,0,0,179,39l7.85,4.68c-3.1,5.61-8.78,9.57-16.78,9.57C158.83,53.28,151.05,44.93,151.05,34.56ZM161,30.17h17.43c-1.3-3.74-4.4-5.69-8.57-5.69A9.42,9.42,0,0,0,161,30.17Z"/><path class="cls-1" d="M0,129.1H9.87V139H0Z"/><path class="cls-1" d="M13.82,121a18.62,18.62,0,0,1,18.65-18.72,18.36,18.36,0,0,1,17.36,11.38L41,117.36a9.36,9.36,0,1,0,0,7.2l8.79,3.75a18.37,18.37,0,0,1-17.36,11.37A18.62,18.62,0,0,1,13.82,121Z"/><path class="cls-1" d="M52,121a18.65,18.65,0,1,1,18.65,18.72A18.62,18.62,0,0,1,52,121Zm27.73,0a9.24,9.24,0,0,0-9.08-9.36,9.37,9.37,0,0,0,0,18.72A9.24,9.24,0,0,0,79.71,121Z"/></g></g></svg>