<svg xmlns="http://www.w3.org/2000/svg" viewBox="0 0 570.69 413.18"><defs><style>.cls-1{fill:#fff;}</style></defs><title>Asset 1</title><g id="Layer_2" data-name="Layer 2"><g id="Layer_1-2" data-name="Layer 1"><path class="cls-1" d="M20.45,105.17H.51V91.5H54.67v13.67H34.74v61.36H20.45Z"/><path class="cls-1" d="M60.84,91.5h14v29.29A18.05,18.05,0,0,1,89,114.11c12.13,0,19.42,7.81,19.42,21.07v31.35H94.14v-29.4c0-7-3.19-11-9.46-11-5.34,0-9.76,3.7-9.76,12.33v28.06H60.84Z"/><path class="cls-1" d="M115.62,95.92H129.7V110H115.62Zm0,19.22H129.7v51.39H115.62Z"/><path class="cls-1" d="M133.81,153.68l13.46-5.24c1.85,4.73,5.75,7,10.79,7,4.63,0,7.09-2.16,7.09-4.63,0-2.77-5-3.59-11-4.73-9.25-1.64-18.5-4.83-18.5-15.82,0-8.63,8.32-16.34,21.06-16.14,11.51,0,18.09,4.73,21.79,11.92l-12.43,5.25c-1.34-3.4-4.83-5.66-9.46-5.66s-6.68,2-6.68,4.22,3,3.08,10.69,4.62c8.63,1.75,18.6,4.83,18.6,15.93,0,7.5-7,17.37-21.79,17.16C145,167.55,137.51,162.72,133.81,153.68Z"/><path class="cls-1" d="M210.06,95.92h14.08V110H210.06Zm0,19.22h14.08v51.39H210.06Z"/><path class="cls-1" d="M228.25,153.68l13.47-5.24c1.85,4.73,5.75,7,10.79,7,4.62,0,7.09-2.16,7.09-4.63,0-2.77-5-3.59-11-4.73-9.25-1.64-18.5-4.83-18.5-15.82,0-8.63,8.33-16.34,21.07-16.14,11.51,0,18.09,4.73,21.79,11.92l-12.44,5.25c-1.33-3.4-4.83-5.66-9.45-5.66s-6.68,2-6.68,4.22,3,3.08,10.69,4.62c8.63,1.75,18.6,4.83,18.6,15.93,0,7.5-7,17.37-21.79,17.16C239.45,167.55,232,162.72,228.25,153.68Z"/><path class="cls-1" d="M294.85,177c8.63,0,9.66-1.24,9.66-9.25V115.14h14.08v52.72c0,16.75-5.35,22.3-21.69,22.3h-2Zm9.66-81.09h14.08V110H304.51Z"/><path class="cls-1" d="M325.78,146.49V115.14h14.29v29.5c0,6.88,3.18,10.89,9.45,10.89,5.35,0,9.76-3.7,9.76-12.33V115.14h14.08v51.39h-14v-5.66a18.07,18.07,0,0,1-14.18,6.68C333.08,167.55,325.78,159.74,325.78,146.49Z"/><path class="cls-1" d="M377.48,153.68l13.46-5.24c1.85,4.73,5.75,7,10.79,7,4.62,0,7.09-2.16,7.09-4.63,0-2.77-5-3.59-11-4.73-9.25-1.64-18.49-4.83-18.49-15.82,0-8.63,8.32-16.34,21.06-16.14,11.51,0,18.09,4.73,21.79,11.92l-12.44,5.25c-1.33-3.4-4.83-5.66-9.45-5.66s-6.68,2-6.68,4.22,3,3.08,10.69,4.62c8.63,1.75,18.6,4.83,18.6,15.93,0,7.5-7,17.37-21.79,17.16C388.68,167.55,381.17,162.72,377.48,153.68Z"/><path class="cls-1" d="M426.5,115.14h8.73v-12l14.08-7.71v19.73H459v12.64h-9.66v16.34c0,8,1,9.25,9.66,9.25v13.16h-2.05c-16.34,0-21.69-5.55-21.69-22.31V127.78H426.5Z"/><path class="cls-1" d="M0,264.16C0,246,13.36,237.44,25,237.44c6.68,0,11.92,2.47,15.32,6.06v-5H54.36v51.38H40.29V284.1a20,20,0,0,1-15.52,6.78C13.87,290.88,0,282.25,0,264.16Zm40.7-.1c0-7.61-5.55-13.77-13.16-13.77a13.82,13.82,0,0,0,0,27.64C35.15,277.93,40.7,271.66,40.7,264.06Z"/><path class="cls-1" d="M83.66,277l13.46-5.24c1.85,4.72,5.75,7,10.79,7,4.62,0,7.09-2.15,7.09-4.62,0-2.78-5-3.6-11-4.73-9.24-1.64-18.49-4.83-18.49-15.82,0-8.64,8.32-16.34,21.06-16.14,11.51,0,18.09,4.73,21.79,11.92l-12.43,5.24c-1.34-3.39-4.83-5.65-9.46-5.65s-6.68,2-6.68,4.21,3,3.09,10.69,4.63c8.63,1.75,18.6,4.83,18.6,15.93,0,7.5-7,17.37-21.79,17.16C94.86,290.88,87.36,286.05,83.66,277Z"/><path class="cls-1" d="M133.19,264.16c0-18.19,13.36-26.72,25-26.72,6.68,0,11.92,2.47,15.31,6.06v-5h14.08v51.38H173.48V284.1A20,20,0,0,1,158,290.88C147.07,290.88,133.19,282.25,133.19,264.16Zm40.7-.1c0-7.61-5.55-13.77-13.16-13.77a13.82,13.82,0,0,0,0,27.64C168.34,277.93,173.89,271.66,173.89,264.06Z"/><path class="cls-1" d="M195.27,238.47h14v5.45a17,17,0,0,1,13.67-6.48c7.3,0,12.74,2.88,15.83,8.12a19.52,19.52,0,0,1,16-8.12c13,0,19.52,7.81,19.52,21.07v31.34H260V260.36c0-6.89-2.67-10.9-8.94-10.9-5.34,0-9.25,3.7-9.25,12.34v28.05H227.54V260.36c0-6.89-2.68-10.9-8.95-10.9-5.34,0-9.24,3.7-9.24,12.34v28.05H195.27Z"/><path class="cls-1" d="M295.57,284.82v28.67H281.49v-75h14.08v5.86A19.41,19.41,0,0,1,311,237.44c11.61,0,24.87,8.53,24.87,26.72s-13.78,26.72-24.67,26.72C304.41,290.88,298.86,288.62,295.57,284.82Zm26.51-20.76a13.45,13.45,0,0,0-13.77-13.77c-7.6,0-13.15,6.16-13.15,13.77s5.55,13.87,13.15,13.87A13.54,13.54,0,0,0,322.08,264.06Z"/><path class="cls-1" d="M341.1,214.83h14.08v75H341.1Z"/><path class="cls-1" d="M360.83,264.16a26.67,26.67,0,0,1,26.72-26.72c15.72,0,26.51,11.82,26.51,26.62v5.14H374.39c1.65,5.65,6.27,9.35,13.67,9.35a13.61,13.61,0,0,0,12.64-8l11.2,6.68c-4.41,8-12.53,13.67-23.94,13.67C371.93,290.88,360.83,279,360.83,264.16ZM375,257.89h24.87c-1.85-5.34-6.27-8.12-12.23-8.12A13.44,13.44,0,0,0,375,257.89Z"/><path class="cls-1" d="M444,238.47h8.74v-1.34c0-16.75,5.44-22.3,22.6-22.3h1.14V228c-8.64,0-9.66,1.23-9.66,9.25v1.23h9.66v12.64h-9.66v38.74H452.71V251.11H444Z"/><path class="cls-1" d="M478,264.16a26.62,26.62,0,1,1,26.61,26.72A26.58,26.58,0,0,1,478,264.16Zm39.56,0A13.18,13.18,0,0,0,504.6,250.8c-7.29,0-12.84,6.06-12.84,13.36s5.55,13.36,12.84,13.36A13.18,13.18,0,0,0,517.55,264.16Z"/><path class="cls-1" d="M536.88,238.47h14v8.43c2.57-5.35,7.2-8.43,14.18-8.43h5.66v13.67h-8.94c-7.51,0-10.79,3.9-10.79,13.46v24.25H536.88Z"/><path class="cls-1" d="M2.06,338.16H27.85c15.52,0,27,11.92,27,26.82S43.37,391.8,27.75,391.8H16.34v21.38H2.06Zm14.28,13.26v27.13H26.82a13.57,13.57,0,1,0,0-27.13Z"/><path class="cls-1" d="M56.22,338.16h14.9l14,51.9,15.42-51.9h14.08L130,389.85l13.77-51.69h14.5l-21.17,75H123L107.5,360.77,92.08,413.18H77.49Z"/><path class="cls-1" d="M176.46,338.16h14.39l26.61,75h-14.9L198,400.13H169.27l-4.52,13.05H149.84ZM174,386.46h19.32l-9.66-27.95Z"/><rect class="cls-1" x="0.46" width="101" height="17"/></g></g></svg>